<svg xmlns="http://www.w3.org/2000/svg" width="900" height="1600" viewBox="0 0 900 1600" preserveAspectRatio="xMidYMid slice">
  <defs>
    <linearGradient id="sky" x1="0" y1="0" x2="0.35" y2="1">
      <stop offset="0%" stop-color="#5f8fa3"/>
      <stop offset="42%" stop-color="#3d6678"/>
      <stop offset="100%" stop-color="#243f4d"/>
    </linearGradient>
    <linearGradient id="glow" x1="0" y1="0" x2="1" y2="1">
      <stop offset="0%" stop-color="#7dd3c7" stop-opacity="0.35"/>
      <stop offset="55%" stop-color="#7dd3c7" stop-opacity="0"/>
      <stop offset="100%" stop-color="#93c5fd" stop-opacity="0.18"/>
    </linearGradient>
    <linearGradient id="pane" x1="0" y1="0" x2="1" y2="0">
      <stop offset="0%" stop-color="#ffffff" stop-opacity="0.14"/>
      <stop offset="100%" stop-color="#ffffff" stop-opacity="0.02"/>
    </linearGradient>
    <radialGradient id="orb" cx="30%" cy="18%" r="55%">
      <stop offset="0%" stop-color="#9FE8DC" stop-opacity="0.28"/>
      <stop offset="100%" stop-color="#9FE8DC" stop-opacity="0"/>
    </radialGradient>
  </defs>
  <rect width="900" height="1600" fill="url(#sky)"/>
  <rect width="900" height="1600" fill="url(#orb)"/>
  <rect width="900" height="1600" fill="url(#glow)"/>
  <g opacity="0.16" fill="none" stroke="#E8F4F8" stroke-width="1.2">
    <path d="M-40 220 H940"/>
    <path d="M-40 460 H940"/>
    <path d="M-40 700 H940"/>
    <path d="M-40 940 H940"/>
    <path d="M-40 1180 H940"/>
    <path d="M160 -40 V1640"/>
    <path d="M360 -40 V1640"/>
    <path d="M560 -40 V1640"/>
    <path d="M760 -40 V1640"/>
  </g>
  <g opacity="0.22">
    <rect x="70" y="180" width="220" height="360" rx="18" fill="url(#pane)"/>
    <rect x="330" y="280" width="260" height="420" rx="18" fill="url(#pane)"/>
    <rect x="620" y="210" width="200" height="300" rx="18" fill="url(#pane)"/>
    <rect x="120" y="780" width="300" height="260" rx="18" fill="url(#pane)"/>
    <rect x="460" y="860" width="320" height="340" rx="18" fill="url(#pane)"/>
  </g>
  <circle cx="720" cy="1280" r="220" fill="#5EEAD4" opacity="0.08"/>
  <circle cx="80" cy="1420" r="160" fill="#93C5FD" opacity="0.08"/>
</svg>
